<svg width="31" height="31" xmlns="http://www.w3.org/2000/svg"><g id="Page-1" stroke="none" stroke-width="1" fill="none" fill-rule="evenodd"><g id="logo" transform="translate(1 1)"><path d="M8.473 1.988C3.66 4.15.293 9.125.293 14.918c0 3.723 1.39 7.107 3.66 9.625M6.54 26.78A13.131 13.131 0 0 0 13.85 29c5.846 0 10.828-3.843 12.731-9.23m.75-3.345c.05-.495.076-.998.076-1.507 0-7.777-6.07-14.081-13.557-14.081-.771 0-1.528.067-2.264.195" id="Oval-5" stroke="#FFF" stroke-width="2"/><ellipse id="Oval-9-Copy-26" stroke="#FFF" stroke-width="2" cx="10.313" cy="1.449" rx="1.358" ry="1.449"/><ellipse id="Oval-9-Copy-27" stroke="#FFF" stroke-width="2" cx="27.407" cy="18.592" rx="1.358" ry="1.449"/><g id="Oval-9-Copy-28" transform="translate(2.293 23)"><g id="path-1-link" fill-rule="nonzero"><ellipse id="path-1" cx="2.716" cy="2.939" rx="2.358" ry="2.449"/></g><ellipse id="Oval" stroke="#FFF" stroke-width="2" cx="2.716" cy="2.939" rx="1.358" ry="1.449"/></g><path d="M13.85 24.102c-4.883 0-8.842-4.112-8.842-9.184 0-5.072 3.959-9.183 8.842-9.183 4.883 0 8.842 4.111 8.842 9.183s-3.959 9.184-8.842 9.184Zm-.446-12.31a1 1 0 0 0-1.617.786v4.748a1 1 0 0 0 1.563.826l3.238-2.207a1 1 0 0 0 .054-1.613l-3.238-2.54Z" id="Combined-Shape" fill="#FFF" fill-rule="nonzero"/></g></g></svg>